<svg xmlns="http://www.w3.org/2000/svg" viewBox="0 0 24 24"><path d="M8.18,5.5A1.5,1.5,0,0,1,9.65,6.7h0l.28,1.4a.5.5,0,0,0,.49.4H22.28a1.5,1.5,0,0,1,1.47,1.8h0l-2,10a1.5,1.5,0,0,1-1.47,1.2h-16a1.5,1.5,0,0,1-1.47-1.2h0L.25,7.3A1.5,1.5,0,0,1,1.72,5.5H8.18Zm0,1H1.72a.53.53,0,0,0-.39.18.53.53,0,0,0-.1.42h0l2.6,13a.5.5,0,0,0,.49.4h16a.5.5,0,0,0,.49-.4h0l2-10a.53.53,0,0,0-.1-.42.53.53,0,0,0-.39-.18H10.42A1.5,1.5,0,0,1,9,8.3H9L8.67,6.9a.5.5,0,0,0-.49-.4Zm12.54-4a1.49,1.49,0,0,1,1.49,1.36V7a.5.5,0,0,1-1,.09V4a.5.5,0,0,0-.41-.49H3.72a.5.5,0,0,0-.49.41V4a.5.5,0,0,1-1,0A1.49,1.49,0,0,1,3.58,2.51H20.72Z"/></svg>
