<svg xmlns="http://www.w3.org/2000/svg" viewBox="0 0 24 24"><path d="M12,0A12,12,0,1,1,0,12,12,12,0,0,1,12,0Zm0,1A11,11,0,1,0,23,12,11,11,0,0,0,12,1Zm0,13a7.49,7.49,0,0,1,6.77,4.29.5.5,0,0,1-.85.53.54.54,0,0,1-.05-.11,6.5,6.5,0,0,0-11.74,0,.5.5,0,0,1-.69.16.49.49,0,0,1-.21-.58A7.49,7.49,0,0,1,12,14ZM12,4A4.75,4.75,0,1,1,7.25,8.75,4.75,4.75,0,0,1,12,4ZM8.49,7.42l-.06.18A3.74,3.74,0,1,0,15.74,9V8.88L15.48,9A7.56,7.56,0,0,1,8.49,7.42ZM12,5A3.78,3.78,0,0,0,9,6.52a6.56,6.56,0,0,0,6.66,1.34A3.74,3.74,0,0,0,12,5Z"/></svg>
