<svg xmlns="http://www.w3.org/2000/svg" viewBox="0 0 24 24"><path d="M12,0a12,12,0,0,1,9.14,19.78h0A12,12,0,0,1,4.22,21.12,12.59,12.59,0,0,1,3,19.86H3A12,12,0,0,1,12,0Zm0,7.74h0A5.58,5.58,0,0,1,9.69,9.12a.48.48,0,0,0-.35.47h0V10.8a2.44,2.44,0,0,0,.75,1.76,1.5,1.5,0,0,1,.41,1h0V15a1.32,1.32,0,0,1-.87,1.24C5,18,4.35,18.26,3.89,19.43a11,11,0,0,0,15.54.67,8.61,8.61,0,0,0,.74-.74c-.46-1.11-1.08-1.4-5.83-3.16A1.29,1.29,0,0,1,13.5,15h0V13.5a1.34,1.34,0,0,1,.46-.92,2.41,2.41,0,0,0,.78-1.78h0V9.59a.51.51,0,0,0-.34-.47A5.9,5.9,0,0,1,12,7.74ZM12,1A11,11,0,0,0,3.18,18.57c.6-1.15,1.68-1.63,6.1-3.26A.33.33,0,0,0,9.5,15h0v-.21a7,7,0,0,1-3.71-.95,1,1,0,0,1-.48-.68,1,1,0,0,1,.22-.82c.47-.55.69-1.27.82-3.05C6.6,5.54,9,3.5,12,3.5s5.49,2.05,5.74,5.79c.12,1.78.35,2.5.83,3.06a1,1,0,0,1,.21.82,1,1,0,0,1-.5.68,7.35,7.35,0,0,1-3.78.94V15a.28.28,0,0,0,.19.26c4.47,1.66,5.58,2.14,6.18,3.24A11,11,0,0,0,12,1Zm0,3.5c-2.53,0-4.44,1.65-4.66,4.85-.13,2-.42,2.9-1,3.63a6.14,6.14,0,0,0,3.21.81v-.22a.52.52,0,0,0-.12-.31,3.39,3.39,0,0,1-1-2.46h0V9.59a1.51,1.51,0,0,1,1-1.43A4.41,4.41,0,0,0,11.29,7,1,1,0,0,1,12,6.74a1,1,0,0,1,.71.29,4.69,4.69,0,0,0,2,1.13,1.49,1.49,0,0,1,1.06,1.43h0V10.8a3.34,3.34,0,0,1-1.12,2.53.45.45,0,0,0-.12.21h0v.25a6.49,6.49,0,0,0,3-.67l.26-.14h0l-.09-.11a5.49,5.49,0,0,1-.94-3.21V9.35C16.53,6.17,14.56,4.5,12,4.5Z"/></svg>
