<svg xmlns="http://www.w3.org/2000/svg" viewBox="0 0 512 236"><defs><style>.c1{fill:#145def;}.c2{fill:#ef4d14;}</style></defs><g><path class="c1" d="M504.63,181.88h0l-.17-.17a33.2,33.2,0,0,0-2.89-3.17c-7.89-9-28.8-35.2-35.05-67.15C458.8,71.74,463.5,62,471.37,39.2h0c.18-.45.39-.88.55-1.33a28.33,28.33,0,1,0-49,7.88h0l0,0a27.29,27.29,0,0,0,3.57,3.8c7,8.06,22.46,28.91,29,62.86,6.21,32-7.92,76-7.92,76l.19,0c-.46,1-.89,2-1.27,3a33.7,33.7,0,1,0,58.08-9.63Z"/><path class="c1" d="M230.53,41A28.36,28.36,0,1,1,284,24.68l.08-.12s3.8,54.23,62.46,51.42a34.76,34.76,0,0,1,3.67-.23h0a34.65,34.65,0,1,1-33.79,40.57h0c-2.72-13.57-6.24-64.2-54.19-60.35a28.32,28.32,0,0,1-5.91.71l-.24,0,0,0A28.32,28.32,0,0,1,230.53,41Z"/><path class="c1" d="M191.08,214.19a33.7,33.7,0,0,0,63.48-22.68c-.38-1-.8-2.06-1.26-3l.18,0s-14.12-44-7.92-76c6.58-33.95,22-54.8,29-62.86a27.9,27.9,0,0,0,3.57-3.8l0,0h0a28.32,28.32,0,1,0-49-7.88c.17.45.37.88.56,1.33h0c7.87,22.8,12.57,32.54,4.82,72.18-6.25,32-27.16,58.17-35,67.15a33.31,33.31,0,0,0-2.9,3.17l-.16.17h0A33.63,33.63,0,0,0,191.08,214.19Z"/></g><g><path class="c2" d="M41.1,41A28.36,28.36,0,1,1,94.58,24.68l.08-.12S98.45,78.79,157.11,76a34.93,34.93,0,0,1,3.67-.23h0A34.65,34.65,0,1,1,127,116.32h0c-2.72-13.57-6.24-64.2-54.19-60.35a28.41,28.41,0,0,1-5.92.71l-.23,0,0,0A28.33,28.33,0,0,1,41.1,41Z"/><path class="c2" d="M2,214.19a33.7,33.7,0,0,0,63.48-22.68c-.38-1-.81-2.06-1.27-3l.19,0s-14.13-44-7.92-76c6.57-33.95,22-54.8,29-62.86a27.29,27.29,0,0,0,3.57-3.8l0,0h0a28.32,28.32,0,1,0-49-7.88c.16.45.37.88.55,1.33h0C48.5,62,53.2,71.74,45.45,111.38c-6.25,32-27.16,58.17-35.05,67.15a33.2,33.2,0,0,0-2.89,3.17l-.17.17h0A33.63,33.63,0,0,0,2,214.19Z"/></g></svg>
